<svg xmlns="http://www.w3.org/2000/svg" height="48px" viewBox="0 -960 960 960" width="48px" fill="YellowGreen"><path d="M144.33-199q-21.83 0-37.08-15.28Q92-229.57 92-251.78q0-22.22 15.25-37.39 15.25-15.16 37.08-15.16h671.34q21.83 0 37.41 15.28 15.59 15.28 15.59 37.5t-15.59 37.38Q837.5-199 815.67-199H144.33Zm0-228.67q-21.83 0-37.08-15.28T92-480.12q0-21.88 15.25-37.05 15.25-15.16 37.08-15.16h671.34q21.83 0 37.41 15.28 15.59 15.28 15.59 37.17 0 21.88-15.59 37.05-15.58 15.16-37.41 15.16H144.33Zm0-228q-21.83 0-37.08-15.28T92-708.45q0-22.22 15.25-37.38Q122.5-761 144.33-761h671.34q21.83 0 37.41 15.28 15.59 15.29 15.59 37.5 0 22.22-15.59 37.39-15.58 15.16-37.41 15.16H144.33Z"/></svg>